<svg xmlns="http://www.w3.org/2000/svg" viewBox="0 0 677.78 853.87"><defs><style>.cls-1,.cls-2{fill:snow;}.cls-1{fill-rule:evenodd;}</style></defs><g id="Layer_2" data-name="Layer 2"><g id="Layer_1-2" data-name="Layer 1"><path class="cls-1" d="M0,381.86H554.1v119c0,176.35-75.88,277.24-162.35,303.22H162.35C75.87,778.05,0,677.16,0,500.81V381.86Z"/><path class="cls-1" d="M97.48,817.22H456.61a18.38,18.38,0,0,1,18.33,18.32h0a18.39,18.39,0,0,1-18.33,18.33H97.48a18.38,18.38,0,0,1-18.32-18.33h0a18.38,18.38,0,0,1,18.32-18.32Z"/><path class="cls-2" d="M330,402.71H620.86a61.06,61.06,0,0,1,40.22,14.59c10.31,9,16.7,21.44,16.7,35.15v78.28c0,.79-.06,1.86-.17,3.35-.07.89-.21,2-.42,3.34-9.19,58.7-32.36,97.39-89.43,122.28-51.69,22.55-131.49,31.67-257.22,32.92a63.35,63.35,0,0,1-21.83-3.49,57.6,57.6,0,0,1-18.65-10.8,49.84,49.84,0,0,1-12.67-16.23A43.9,43.9,0,0,1,273.06,643V452.45c0-13.71,6.39-26.15,16.69-35.15A61.09,61.09,0,0,1,330,402.71Zm290.88,44.21H330a6.77,6.77,0,0,0-4.46,1.64,5.14,5.14,0,0,0-1.87,3.89V643a5.31,5.31,0,0,0,.38,2.22,5.44,5.44,0,0,0,1.4,1.72,6.62,6.62,0,0,0,2.05,1.29,7.65,7.65,0,0,0,2.66.39c117.54-1.17,190.67-9.05,235.09-28.43,39-17,55.16-45.2,62-88.6l0-.41c0-.26,0,.13,0-.41V452.45a5.16,5.16,0,0,0-1.86-3.89,6.8,6.8,0,0,0-4.46-1.64Z"/><path class="cls-1" d="M227.44,80.64c-78.86,73.58,60.67,197.74,49.61,263,78.86-73.57-60.67-197.74-49.61-263Z"/><path class="cls-1" d="M277.05,0c-78.86,73.57,60.67,197.74,49.61,263C405.52,189.38,266,65.22,277.05,0Z"/></g></g></svg>